<?xml version="1.0" standalone="no"?>
<!DOCTYPE svg PUBLIC "-//W3C//DTD SVG 20010904//EN"
 "http://www.w3.org/TR/2001/REC-SVG-20010904/DTD/svg10.dtd">
<svg version="1.0" xmlns="http://www.w3.org/2000/svg"
 width="300.000000pt" height="192.000000pt" viewBox="0 0 300.000000 192.000000"
 preserveAspectRatio="xMidYMid meet">
<metadata>
Created by potrace 1.10, written by Peter Selinger 2001-2011
</metadata>
<g transform="translate(0.000000,192.000000) scale(0.100000,-0.100000)"
fill="#000000" stroke="none">
<path d="M651 1876 c-8 -9 -19 -16 -26 -16 -7 0 -16 -7 -19 -16 -4 -10 -12
-14 -22 -10 -25 9 -67 -37 -59 -64 4 -12 1 -27 -5 -35 -18 -22 -4 -45 25 -45
15 0 24 4 20 10 -3 5 -12 7 -20 3 -17 -6 -21 22 -4 33 6 3 8 17 5 30 -4 14 -2
24 4 24 5 0 10 7 10 15 0 11 7 14 25 9 18 -4 27 -1 31 10 3 9 11 16 16 16 6 0
16 7 23 16 14 20 66 12 87 -13 12 -15 11 -15 -9 -5 -12 7 -29 12 -37 12 -21 0
-56 -39 -56 -62 0 -11 -12 -23 -27 -30 -23 -9 -25 -12 -10 -15 24 -6 53 21 60
56 8 36 26 43 66 24 34 -17 47 -13 38 11 -15 37 -96 66 -116 42z"/>
<path d="M1520 1500 c-233 -182 -426 -330 -429 -330 -3 0 -20 32 -38 70 -23
51 -39 73 -57 80 -21 8 -25 13 -17 27 11 22 27 62 34 85 8 25 -10 83 -33 103
-16 14 -19 26 -14 52 3 18 3 44 0 58 -7 28 -59 65 -91 65 -12 0 -27 13 -37 30
-13 23 -24 30 -48 30 -16 0 -30 -5 -30 -11 0 -6 8 -8 18 -5 21 7 35 -2 50 -29
8 -17 6 -25 -14 -44 -14 -13 -23 -26 -20 -28 3 -3 15 4 27 16 51 48 129 11
129 -61 0 -63 -67 -98 -118 -62 -12 8 -22 11 -22 5 0 -26 78 -41 110 -21 19
12 36 -3 50 -46 23 -68 13 -78 -157 -157 -33 -15 -107 10 -153 52 -38 34 -39
38 -31 74 l9 37 -33 0 c-20 0 -35 6 -39 15 -4 10 1 15 14 15 11 0 20 7 20 15
0 16 -34 38 -44 28 -3 -3 -6 -2 -6 4 0 22 27 34 54 23 17 -6 26 -6 26 0 0 6
-14 13 -30 17 -22 4 -32 13 -36 32 -10 46 -13 47 -12 5 1 -25 -5 -52 -15 -67
-24 -36 -22 -55 14 -125 31 -64 73 -104 147 -141 23 -12 42 -26 42 -31 0 -6
-2 -10 -4 -10 -10 0 -82 44 -103 63 -13 11 -23 16 -23 10 0 -11 43 -53 54 -53
5 0 24 -9 43 -21 31 -19 32 -22 17 -34 -16 -11 -16 -13 7 -25 13 -7 41 -28 62
-48 20 -20 37 -32 37 -27 -1 16 -33 54 -61 73 -19 12 -24 22 -19 36 5 17 14
10 60 -45 29 -35 59 -78 67 -96 7 -18 16 -33 19 -33 12 0 -8 56 -31 85 -22 29
-22 34 -10 80 7 28 19 51 26 53 19 3 52 -42 69 -93 43 -132 118 -235 171 -235
31 0 47 -16 31 -32 -11 -11 -75 13 -106 40 -18 16 -19 16 -13 -8 15 -58 19
-135 12 -253 l-7 -126 -69 -11 c-104 -18 -114 -13 -129 63 -9 52 -9 70 3 105
9 25 11 42 5 40 -12 -4 -41 -94 -58 -174 l-11 -52 -59 -6 c-80 -9 -140 7 -140
37 0 13 -5 28 -12 35 -9 9 -8 12 5 12 28 0 19 28 -14 45 l-31 16 7 102 c7 108
26 191 50 223 19 26 20 51 1 35 -26 -21 -57 -111 -62 -179 -3 -37 -7 -82 -10
-100 l-5 -33 -62 3 c-60 3 -62 4 -67 33 -12 69 34 278 79 358 61 109 79 145
85 169 3 15 13 34 22 43 9 9 13 19 9 23 -9 9 -45 -36 -45 -57 0 -9 -12 -36
-26 -61 -122 -212 -180 -452 -125 -522 11 -13 22 -44 26 -69 7 -45 6 -46 -23
-52 -35 -7 -60 -39 -94 -121 -22 -50 -24 -65 -16 -105 6 -25 15 -51 22 -57 6
-6 64 -30 130 -54 88 -31 130 -41 162 -38 24 2 44 1 44 -2 0 -3 -4 -21 -10
-40 -8 -29 -16 -37 -52 -48 -89 -27 -106 -58 -48 -82 45 -19 205 -2 222 24 4
6 57 10 141 11 100 0 138 4 151 14 47 39 -23 97 -104 86 -72 -10 -133 -7 -142
7 -19 27 0 164 31 230 45 98 65 115 136 121 l60 5 0 -161 0 -162 28 -2 c24 -2
27 2 27 28 l0 29 895 0 895 0 0 350 0 350 38 0 c38 0 39 1 37 36 -2 32 -11 42
-76 93 -41 32 -259 201 -484 377 -226 176 -416 323 -421 327 -6 3 -201 -142
-434 -323z m570 134 c63 -50 230 -180 370 -290 140 -110 281 -220 313 -243 31
-24 57 -46 57 -49 0 -2 -34 -2 -75 0 l-75 5 0 -29 c0 -27 1 -28 55 -28 l55 0
0 -345 0 -345 -25 0 -25 0 0 253 0 253 -43 42 -43 43 -304 0 -304 0 -43 -43
-43 -42 0 -253 c0 -218 -2 -253 -15 -253 -13 0 -15 35 -15 252 l0 252 -45 46
-44 45 -300 -5 -300 -5 -46 -38 -45 -38 0 -252 0 -252 -40 0 -40 0 0 302 c0
167 4 303 8 303 5 0 35 -8 66 -19 50 -16 59 -17 71 -4 8 8 15 21 15 30 0 13 8
15 44 10 32 -5 47 -2 56 8 7 8 21 15 32 15 10 0 22 8 25 18 4 9 13 23 20 30
16 16 7 92 -12 107 -11 7 -6 16 21 40 18 16 41 47 49 68 l15 37 -56 -3 c-40
-2 -59 -8 -66 -20 -5 -9 -19 -17 -32 -17 -26 0 -50 -23 -65 -62 -7 -18 -16
-26 -24 -22 -20 7 -47 -22 -47 -51 0 -23 -1 -23 -30 -9 -16 9 -30 19 -30 23 0
8 64 59 450 361 129 101 264 207 300 235 53 43 68 51 80 41 8 -7 67 -53 130
-102z m-1470 -180 c0 -22 -2 -25 -15 -14 -8 7 -15 19 -15 26 0 8 7 14 15 14
10 0 15 -10 15 -26z m350 -89 c0 -9 -7 -18 -16 -22 -11 -4 -13 -13 -9 -34 10
-42 -3 -53 -28 -23 -19 22 -26 24 -49 15 -22 -8 -27 -7 -31 10 -4 14 0 19 16
19 12 0 40 11 62 25 47 29 55 30 55 10z m26 -63 c7 -4 35 -56 63 -115 39 -80
58 -110 77 -117 21 -8 24 -14 20 -52 -4 -38 -7 -43 -28 -41 -65 7 -176 208
-162 294 7 40 11 44 30 31z m-203 -31 c-5 -13 -3 -13 8 2 15 18 49 15 49 -5 0
-6 -7 -8 -15 -4 -8 3 -15 1 -15 -5 0 -14 -52 -2 -62 14 -13 20 -9 24 16 20 18
-4 23 -10 19 -22z m657 -40 c0 -14 -47 -67 -54 -61 -7 7 33 70 45 70 5 0 9 -4
9 -9z m-117 -31 c-23 -10 -59 -57 -50 -66 3 -3 15 0 27 6 12 6 28 9 36 6 21
-8 17 -34 -7 -47 -17 -9 -25 -7 -45 12 -13 12 -24 28 -24 34 0 23 41 65 63 64
l22 0 -22 -9z m35 -22 c19 -19 15 -23 -28 -23 -37 -1 -39 0 -23 17 19 21 34
23 51 6z m-75 -85 c9 -9 17 -24 17 -35 0 -20 -15 -24 -25 -7 -11 17 -30 4 -30
-21 0 -16 -12 -32 -35 -48 l-35 -24 -3 37 c-3 37 7 61 15 38 10 -27 21 -11 16
22 -8 51 2 69 35 60 15 -3 35 -14 45 -22z m94 -16 c-6 -16 -57 -29 -57 -15 0
6 10 18 23 28 23 20 44 12 34 -13z m1493 -38 c0 -5 -13 -15 -30 -24 -34 -18
-39 -6 -12 30 12 17 20 20 30 13 6 -6 12 -14 12 -19z m-1492 -6 c-2 -12 -13
-18 -32 -18 -38 0 -45 22 -9 28 15 2 32 5 36 6 5 0 7 -7 5 -16z m-78 -16 c0
-7 -5 -18 -11 -24 -8 -8 -8 -13 0 -17 22 -14 10 -25 -24 -24 -19 1 -35 3 -35
5 0 8 55 73 63 73 4 0 7 -6 7 -13z m58 -29 c-3 -7 -15 -13 -28 -13 -13 0 -25
6 -27 13 -3 8 6 12 27 12 21 0 30 -4 28 -12z m476 -148 l20 -20 -62 0 -62 0 0
-40 c0 -22 5 -40 10 -40 6 0 10 15 10 33 l0 32 63 0 62 0 0 -243 0 -242 -348
-3 -347 -2 0 248 c0 158 4 247 10 247 6 0 11 -17 12 -37 l1 -38 4 38 4 37 53
-6 c35 -4 56 -3 60 5 5 8 -12 11 -55 11 l-62 0 21 23 c21 22 22 22 303 20 270
-2 283 -3 303 -23z m808 3 c20 -18 19 -18 -38 -23 -59 -5 -59 -5 -62 -39 -2
-18 1 -38 7 -44 8 -8 11 1 11 29 l0 40 63 0 62 -1 3 -245 2 -245 -347 2 -348
3 -3 232 c-2 227 4 307 18 223 l7 -40 2 38 1 37 54 -6 c35 -4 56 -3 60 5 5 8
-12 11 -55 11 l-62 0 21 23 c21 22 22 22 303 20 255 -2 283 -4 301 -20z
m-2113 -173 c14 -14 22 -22 17 -17 -21 16 -24 5 -11 -34 20 -54 20 -52 -21
-46 -84 14 -104 37 -104 118 0 25 4 28 38 31 25 2 40 -2 46 -12 4 -8 20 -26
35 -40z m292 -75 c7 -27 17 -45 26 -45 10 0 7 -9 -11 -33 -59 -77 -93 -207
-77 -293 6 -34 5 -44 -4 -44 -8 0 -20 -3 -29 -6 -14 -5 -16 4 -16 68 0 42 8
103 19 143 19 69 20 100 2 54 l-10 -24 0 26 c-1 29 -15 49 -51 73 -24 16 -23
16 42 16 l67 0 12 55 c7 30 14 55 15 55 2 0 9 -20 15 -45z m-342 -31 c19 -9
42 -13 56 -10 26 7 31 0 17 -22 -7 -9 -18 -9 -54 4 -26 8 -52 22 -59 30 -15
18 0 18 40 -2z m-50 -18 c13 -14 53 -39 88 -57 71 -35 77 -44 91 -134 16 -94
16 -92 -42 -84 -71 10 -211 57 -241 81 -31 25 -33 74 -4 138 38 84 68 99 108
56z m188 -53 c25 -24 31 -38 37 -96 4 -37 4 -72 1 -77 -13 -20 -20 -8 -21 33
-1 79 -13 115 -44 134 -17 9 -30 21 -30 25 0 17 29 7 57 -19z m79 -261 l1 -58
-38 1 c-36 0 -37 1 -32 30 5 27 48 85 62 85 4 0 7 -26 7 -58z m289 -64 c15 -7
25 -18 23 -27 -7 -36 -269 -40 -282 -4 -4 9 -4 18 -2 20 8 9 85 9 80 1 -6 -9
54 1 76 13 22 12 75 11 105 -3z m-277 -26 c6 -9 12 -22 12 -29 0 -21 -60 -40
-133 -42 -60 -1 -67 0 -67 18 0 32 118 68 135 41 9 -15 22 -12 22 5 0 8 -5 11
-10 8 -6 -3 -7 -1 -3 5 3 5 0 13 -6 16 -7 3 -2 3 12 0 14 -3 31 -13 38 -22z"/>
<path d="M1740 1275 l0 -184 210 -1 210 0 0 185 0 185 -210 0 -210 0 0 -185z
m100 155 c0 -5 -18 -10 -40 -10 -22 0 -40 5 -40 10 0 6 18 10 40 10 22 0 40
-4 40 -10z m300 0 c0 -5 -20 -10 -45 -10 -25 0 -45 5 -45 10 0 6 20 10 45 10
25 0 45 -4 45 -10z m-127 -78 l2 -62 -67 0 -68 0 0 65 0 66 66 -3 66 -3 1 -63z
m-176 45 c-4 -14 -77 -23 -77 -9 0 14 6 17 45 19 24 1 35 -2 32 -10z m303 -3
c0 -6 -18 -9 -42 -8 -50 2 -51 2 -45 12 8 11 87 8 87 -4z m-302 -36 c-3 -7
-21 -14 -41 -16 -28 -2 -37 1 -37 12 0 12 11 16 41 16 28 0 39 -4 37 -12z
m302 -4 c0 -12 -9 -14 -42 -12 -59 4 -63 28 -4 28 35 0 46 -4 46 -16z m-300
-34 c0 -5 -18 -10 -40 -10 -22 0 -40 5 -40 10 0 6 18 10 40 10 22 0 40 -4 40
-10z m300 0 c0 -5 -20 -10 -45 -10 -25 0 -45 5 -45 10 0 6 20 10 45 10 25 0
45 -4 45 -10z m-300 -40 c0 -5 -18 -10 -40 -10 -22 0 -40 5 -40 10 0 6 18 10
40 10 22 0 40 -4 40 -10z m300 0 c0 -5 -20 -10 -45 -10 -25 0 -45 5 -45 10 0
6 20 10 45 10 25 0 45 -4 45 -10z m-126 -81 l-2 -61 -65 -2 -66 -1 -3 63 -3
62 70 0 70 0 -1 -61z m-174 41 c0 -5 -18 -10 -40 -10 -22 0 -40 5 -40 10 0 6
18 10 40 10 22 0 40 -4 40 -10z m300 0 c0 -5 -20 -10 -45 -10 -25 0 -45 5 -45
10 0 6 20 10 45 10 25 0 45 -4 45 -10z m-300 -40 c0 -5 -18 -10 -40 -10 -22 0
-40 5 -40 10 0 6 18 10 40 10 22 0 40 -4 40 -10z m300 0 c0 -5 -20 -10 -45
-10 -25 0 -45 5 -45 10 0 6 20 10 45 10 25 0 45 -4 45 -10z m-300 -40 c0 -5
-18 -10 -40 -10 -22 0 -40 5 -40 10 0 6 18 10 40 10 22 0 40 -4 40 -10z m300
0 c0 -5 -20 -10 -45 -10 -25 0 -45 5 -45 10 0 6 20 10 45 10 25 0 45 -4 45
-10z m-304 -37 c-11 -11 -76 -13 -76 -2 0 5 19 9 42 9 23 0 38 -3 34 -7z m299
-3 c-3 -5 -21 -10 -40 -10 -19 0 -37 5 -40 10 -4 6 12 10 40 10 28 0 44 -4 40
-10z"/>
<path d="M1380 780 c0 -22 5 -40 10 -40 6 0 10 15 10 33 l0 32 51 -4 c29 -2
56 2 62 8 8 8 -9 11 -61 11 l-72 0 0 -40z"/>
<path d="M1560 780 c0 -22 5 -40 10 -40 6 0 10 15 10 34 l0 35 55 -6 c38 -4
55 -2 55 6 0 7 -23 11 -65 11 l-65 0 0 -40z"/>
<path d="M1212 648 c1 -40 2 -41 5 -8 l4 35 50 -4 c29 -2 56 2 62 8 8 8 -7 11
-56 11 l-67 0 2 -42z"/>
<path d="M1380 651 c0 -22 5 -43 10 -46 6 -4 10 8 10 29 l0 36 54 0 c30 0 58
5 61 10 4 6 -20 10 -64 10 l-71 0 0 -39z"/>
<path d="M1560 651 c0 -22 5 -43 10 -46 6 -4 10 8 10 29 l0 36 55 0 c30 0 55
5 55 10 0 6 -28 10 -65 10 l-65 0 0 -39z"/>
<path d="M1740 650 c0 -22 5 -40 10 -40 6 0 10 14 10 30 0 29 1 30 49 30 28 0
53 5 56 10 4 6 -18 10 -59 10 l-66 0 0 -40z"/>
<path d="M1212 518 c1 -40 2 -41 5 -8 l4 35 50 -4 c29 -2 56 2 62 8 8 8 -7 11
-56 11 l-67 0 2 -42z"/>
<path d="M1387 553 c-11 -10 -8 -71 3 -78 6 -4 10 8 10 29 l0 36 54 0 c30 0
58 5 61 10 7 11 -117 14 -128 3z"/>
<path d="M1560 521 c0 -22 5 -43 10 -46 6 -4 10 8 10 29 l0 36 55 0 c30 0 55
5 55 10 0 6 -28 10 -65 10 l-65 0 0 -39z"/>
<path d="M1740 521 c0 -22 5 -43 10 -46 6 -4 10 8 10 29 l0 36 49 0 c28 0 53
5 56 10 4 6 -18 10 -59 10 l-66 0 0 -39z"/>
<path d="M1212 388 c1 -40 2 -41 5 -8 l4 35 50 -4 c29 -2 56 2 62 8 8 8 -7 11
-56 11 l-67 0 2 -42z"/>
<path d="M1380 390 c0 -22 5 -40 10 -40 6 0 10 14 10 30 0 30 1 30 54 30 30 0
58 5 61 10 4 6 -20 10 -64 10 l-71 0 0 -40z"/>
<path d="M1560 390 c0 -22 5 -40 10 -40 6 0 10 14 10 30 0 30 1 30 55 30 30 0
55 5 55 10 0 6 -28 10 -65 10 l-65 0 0 -40z"/>
<path d="M1740 390 c0 -22 5 -40 10 -40 6 0 10 14 10 30 0 29 1 30 49 30 28 0
53 5 56 10 4 6 -18 10 -59 10 l-66 0 0 -40z"/>
<path d="M2190 781 c0 -52 18 -63 22 -14 l3 37 53 -3 c32 -1 52 2 52 8 0 7
-25 11 -65 11 l-65 0 0 -39z"/>
<path d="M2370 781 c0 -22 5 -43 10 -46 6 -4 10 10 10 34 l0 40 55 -6 c38 -4
55 -2 55 6 0 7 -23 11 -65 11 l-65 0 0 -39z"/>
<path d="M2022 648 c1 -37 2 -39 5 -10 4 32 5 32 58 32 30 0 57 5 60 10 4 6
-18 10 -59 10 l-66 0 2 -42z"/>
<path d="M2190 651 c0 -22 5 -43 10 -46 6 -4 10 8 10 29 l0 36 54 0 c30 0 58
5 61 10 4 6 -20 10 -64 10 l-71 0 0 -39z"/>
<path d="M2370 650 c0 -22 5 -40 10 -40 6 0 10 14 10 30 0 30 1 30 55 30 30 0
55 5 55 10 0 6 -28 10 -65 10 l-65 0 0 -40z"/>
<path d="M2557 683 c-11 -10 -8 -71 3 -78 6 -4 10 8 10 29 l0 36 55 0 c30 0
55 5 55 10 0 11 -113 14 -123 3z"/>
<path d="M2022 518 c1 -37 2 -39 5 -10 4 32 5 32 58 32 30 0 57 5 60 10 4 6
-18 10 -59 10 l-66 0 2 -42z"/>
<path d="M2190 521 c0 -22 5 -43 10 -46 6 -4 10 8 10 29 l0 36 54 0 c30 0 58
5 61 10 4 6 -20 10 -64 10 l-71 0 0 -39z"/>
<path d="M2370 521 c0 -22 5 -43 10 -46 6 -4 10 8 10 29 l0 36 55 0 c30 0 55
5 55 10 0 6 -28 10 -65 10 l-65 0 0 -39z"/>
<path d="M2557 553 c-11 -10 -8 -71 3 -78 6 -4 10 8 10 29 l0 36 55 0 c30 0
55 5 55 10 0 11 -113 14 -123 3z"/>
<path d="M2022 388 c1 -40 2 -41 5 -8 l4 35 50 -4 c29 -2 56 2 62 8 8 8 -7 11
-56 11 l-67 0 2 -42z"/>
<path d="M2197 423 c-11 -10 -8 -73 3 -73 6 0 10 14 10 30 0 30 1 30 54 30 30
0 58 5 61 10 7 11 -117 14 -128 3z"/>
<path d="M2370 390 c0 -22 5 -40 10 -40 6 0 10 14 10 30 0 30 1 30 55 30 30 0
55 5 55 10 0 6 -28 10 -65 10 l-65 0 0 -40z"/>
<path d="M2557 423 c-11 -10 -8 -73 3 -73 6 0 10 14 10 30 0 29 1 30 49 30 28
0 53 5 56 10 7 11 -107 14 -118 3z"/>
<path d="M527 414 c-29 -27 -46 -89 -28 -107 13 -13 54 -21 46 -8 -3 5 0 13 5
16 12 7 29 47 36 80 2 12 -4 25 -15 32 -15 9 -23 7 -44 -13z m43 2 c0 -2 -11
-27 -24 -56 -15 -33 -27 -47 -31 -39 -8 12 33 99 47 99 5 0 8 -2 8 -4z"/>
<path d="M690 1803 c0 -10 34 -32 49 -33 10 0 11 3 2 14 -12 14 -51 29 -51 19z"/>
<path d="M674 1728 c-5 -8 -2 -9 10 -5 24 9 55 -9 67 -40 13 -34 3 -63 -22
-63 -10 0 -19 -4 -19 -10 0 -16 27 -12 45 7 11 10 15 27 13 45 -4 24 -2 27 14
22 20 -6 25 11 6 20 -10 5 -10 7 0 12 15 7 6 24 -14 24 -8 0 -14 -7 -14 -17 0
-15 -1 -15 -18 0 -22 20 -58 22 -68 5z"/>
<path d="M666 1691 c-14 -21 31 -71 48 -54 11 11 6 23 -9 23 -8 0 -15 5 -15
10 0 6 7 10 16 10 8 0 12 5 9 10 -8 12 -42 13 -49 1z"/>
<path d="M807 1502 c-5 -7 -13 -10 -18 -7 -16 11 -9 -7 9 -21 20 -15 82 -19
82 -4 0 5 7 7 15 4 8 -4 15 -1 15 6 0 12 -38 10 -72 -4 -12 -6 -17 -2 -20 16
-2 16 -5 19 -11 10z"/>
<path d="M627 1133 c-16 -4 -18 -11 -12 -41 9 -55 15 -72 25 -72 5 0 4 15 -1
32 -18 65 -16 68 56 68 37 0 65 4 65 10 0 10 -98 12 -133 3z"/>
<path d="M761 1069 c-1 -36 -6 -50 -23 -62 -13 -8 -19 -18 -15 -23 4 -4 18 3
31 17 21 21 23 29 16 69 l-7 45 -2 -46z"/>
<path d="M826 1075 c-3 -9 1 -18 10 -22 19 -7 28 2 21 22 -8 19 -23 19 -31 0z"/>
<path d="M890 950 c0 -28 -5 -60 -11 -71 -6 -11 -8 -25 -6 -32 3 -7 12 5 21
25 18 42 21 113 6 123 -6 4 -10 -13 -10 -45z"/>
<path d="M834 871 c4 -6 2 -11 -3 -11 -6 0 -11 -5 -11 -11 0 -6 8 -9 18 -7 20
4 23 29 3 36 -8 3 -11 0 -7 -7z"/>
<path d="M786 754 c-10 -25 -7 -34 9 -34 8 0 15 9 15 19 0 26 -16 35 -24 15z"/>
</g>
</svg>
